<svg width="20" height="18" viewBox="0 0 20 18" fill="none" xmlns="http://www.w3.org/2000/svg">
<path d="M14.1249 0.75C12.5299 0.75 10.9991 1.4925 9.99992 2.66583C9.00075 1.4925 7.46992 0.75 5.87492 0.75C3.05159 0.75 0.833252 2.96833 0.833252 5.79167C0.833252 9.25667 3.94992 12.08 8.67075 16.37L9.99992 17.5708L11.3291 16.3608C16.0499 12.08 19.1666 9.25667 19.1666 5.79167C19.1666 2.96833 16.9483 0.75 14.1249 0.75ZM10.0916 15.0042L9.99992 15.0958L9.90825 15.0042C5.54492 11.0533 2.66659 8.44083 2.66659 5.79167C2.66659 3.95833 4.04159 2.58333 5.87492 2.58333C7.28659 2.58333 8.66159 3.49083 9.14742 4.74667H10.8616C11.3383 3.49083 12.7133 2.58333 14.1249 2.58333C15.9583 2.58333 17.3333 3.95833 17.3333 5.79167C17.3333 8.44083 14.4549 11.0533 10.0916 15.0042Z" fill="white"/>
</svg>
